<svg width="183" height="183" viewBox="0 0 183 183" fill="none" xmlns="http://www.w3.org/2000/svg">
<path d="M56.751 93.7393C56.751 94.4717 56.6533 95.1146 56.458 95.668C56.2627 96.2051 56.043 96.6608 55.7988 97.0352C55.5547 97.4095 55.3268 97.6943 55.1152 97.8896C54.9199 98.085 54.8141 98.1908 54.7979 98.207L54.5537 98.4023L54.2119 98.3047C53.3005 97.9954 52.4948 97.7676 51.7949 97.6211C51.1113 97.4746 50.4277 97.4014 49.7441 97.4014C49.2396 97.4014 48.7432 97.4502 48.2549 97.5479L48.4014 97.8408L48.499 98.0605L48.4014 98.2559C48.0107 99.3626 47.7422 100.461 47.5957 101.552C47.8561 101.487 48.1491 101.43 48.4746 101.381C48.8001 101.332 49.1094 101.291 49.4023 101.259C49.6953 101.226 49.9395 101.202 50.1348 101.186C50.3301 101.169 50.4359 101.161 50.4521 101.161L50.6475 101.088L50.8428 101.21C51.7705 101.584 52.5599 101.869 53.2109 102.064C53.862 102.26 54.5212 102.357 55.1885 102.357C55.6442 102.357 56.1406 102.309 56.6777 102.211C57.2148 102.113 57.8252 101.975 58.5088 101.796L58.8018 101.698L59.0459 101.894C59.0622 101.926 59.1517 102.032 59.3145 102.211C59.4935 102.374 59.6807 102.634 59.876 102.992C60.0713 103.334 60.2503 103.773 60.4131 104.311C60.5758 104.831 60.6572 105.458 60.6572 106.19C60.641 106.923 60.527 107.558 60.3154 108.095C60.1038 108.632 59.876 109.088 59.6318 109.462C59.3877 109.82 59.1598 110.097 58.9482 110.292C58.7367 110.487 58.6227 110.593 58.6064 110.609L58.2891 110.756L57.9961 110.658C57.0358 110.3 56.2383 110.048 55.6035 109.901C54.9688 109.739 54.3503 109.657 53.748 109.657C53.3249 109.657 52.8854 109.698 52.4297 109.779C51.974 109.844 51.445 109.95 50.8428 110.097H50.501C50.0452 110.015 49.5895 109.926 49.1338 109.828C48.6943 109.714 48.2467 109.608 47.791 109.511C47.6283 109.69 47.4167 109.885 47.1562 110.097C46.9121 110.292 46.6029 110.471 46.2285 110.634C45.8704 110.797 45.4473 110.927 44.959 111.024C44.487 111.138 43.9499 111.195 43.3477 111.195C42.3874 111.195 41.5898 111.065 40.9551 110.805C40.3366 110.544 39.8402 110.259 39.4658 109.95C39.1077 109.625 38.8555 109.332 38.709 109.071C38.5625 108.795 38.4893 108.64 38.4893 108.607L38.3916 108.412L38.4893 108.144C38.8636 107.248 39.1403 106.329 39.3193 105.385C39.4984 104.441 39.5879 103.48 39.5879 102.504C39.5879 101.82 39.5472 101.129 39.4658 100.429C39.4007 99.7288 39.2786 99.0046 39.0996 98.2559V97.9385C39.2949 97.141 39.4495 96.3597 39.5635 95.5947C39.6937 94.8135 39.7588 94.0322 39.7588 93.251C39.7588 92.3883 39.6855 91.542 39.5391 90.7119C39.3926 89.8818 39.1973 89.0599 38.9531 88.2461L38.9043 88.002L39.002 87.8066C39.36 86.9277 39.6204 86.0488 39.7832 85.1699C39.9622 84.2747 40.0518 83.3877 40.0518 82.5088C40.0518 81.7926 39.9948 81.0846 39.8809 80.3848C39.7832 79.6686 39.6204 78.9443 39.3926 78.2119L39.2949 77.8945L39.4902 77.6504C39.5065 77.6341 39.6042 77.5365 39.7832 77.3574C39.9622 77.1621 40.2308 76.9587 40.5889 76.7471C40.9632 76.5192 41.4271 76.3239 41.9805 76.1611C42.5339 75.9821 43.193 75.8926 43.958 75.8926C44.8369 75.8926 45.5856 76.0146 46.2041 76.2588C46.8226 76.5029 47.319 76.7633 47.6934 77.04C48.1654 76.9912 48.6618 76.918 49.1826 76.8203C49.7035 76.7227 50.2243 76.5843 50.7451 76.4053L50.9404 76.3076L51.209 76.3564C51.9902 76.6006 52.6657 76.7878 53.2354 76.918C53.8213 77.0319 54.3747 77.0889 54.8955 77.0889C55.4652 77.0889 56.0592 77.0156 56.6777 76.8691C57.2962 76.7227 58.0205 76.5029 58.8506 76.21L59.1436 76.0879L59.4121 76.2588C59.4284 76.2751 59.5342 76.3646 59.7295 76.5273C59.9248 76.6901 60.1364 76.9424 60.3643 77.2842C60.5921 77.6097 60.8037 78.0329 60.999 78.5537C61.2106 79.0583 61.3408 79.6768 61.3896 80.4092V80.8486C61.3896 81.4997 61.3083 82.0775 61.1455 82.582C60.9827 83.0866 60.7956 83.5179 60.584 83.876C60.3887 84.2178 60.2015 84.4782 60.0225 84.6572C59.8597 84.8363 59.7702 84.9339 59.7539 84.9502L59.5098 85.1455L59.1436 85.0479C58.3623 84.8688 57.695 84.7386 57.1416 84.6572C56.5882 84.5596 56.0755 84.5107 55.6035 84.5107C55.0501 84.5107 54.4967 84.5758 53.9434 84.7061C53.4062 84.82 52.7552 84.999 51.9902 85.2432L51.6484 85.292C50.9648 85.1618 50.3057 85.0641 49.6709 84.999C49.0524 84.9339 48.4258 84.9014 47.791 84.9014C47.8398 85.3571 47.9049 85.8128 47.9863 86.2686C48.084 86.708 48.2061 87.1556 48.3525 87.6113V87.9531C48.2549 88.2461 48.1735 88.5391 48.1084 88.832C48.0596 89.1087 48.0107 89.4017 47.9619 89.7109C48.4339 89.8411 48.8734 89.9307 49.2803 89.9795C49.7035 90.0283 50.1429 90.0527 50.5986 90.0527C51.2008 90.0527 51.8112 90.0039 52.4297 89.9062C53.0482 89.7923 53.7236 89.6214 54.4561 89.3936L54.749 89.2959L54.9932 89.4912C55.0094 89.5075 55.1071 89.6051 55.2861 89.7842C55.4814 89.9469 55.6849 90.2074 55.8965 90.5654C56.1243 90.9072 56.3197 91.3467 56.4824 91.8838C56.6615 92.4046 56.751 93.0231 56.751 93.7393ZM83.2646 94.252C83.2646 95.0007 83.167 95.6598 82.9717 96.2295C82.7926 96.7829 82.5892 97.2549 82.3613 97.6455C82.1335 98.0199 81.9219 98.3047 81.7266 98.5C81.5312 98.679 81.4255 98.7767 81.4092 98.793L81.165 98.9883L80.8232 98.9395C79.9932 98.6953 79.3014 98.5163 78.748 98.4023C78.1947 98.2721 77.6657 98.207 77.1611 98.207C76.6891 98.207 76.2008 98.264 75.6963 98.3779C75.1917 98.4756 74.5814 98.6302 73.8652 98.8418L73.5723 98.8906C72.9701 98.6465 72.3027 98.4919 71.5703 98.4268C70.8379 98.3454 70.2194 98.3047 69.7148 98.3047C69.0638 98.3047 68.4046 98.3779 67.7373 98.5244C67.0863 98.6709 66.3457 98.8988 65.5156 99.208H65.0762C65.0436 99.1917 64.889 99.1104 64.6123 98.9639C64.3519 98.8011 64.0671 98.5326 63.7578 98.1582C63.4486 97.7839 63.1637 97.2793 62.9033 96.6445C62.6429 96.0098 62.5127 95.2122 62.5127 94.252C62.5127 93.373 62.6348 92.6406 62.8789 92.0547C63.123 91.4688 63.3916 91.0049 63.6846 90.6631C63.9938 90.3213 64.2786 90.0853 64.5391 89.9551C64.7995 89.8086 64.946 89.7272 64.9785 89.7109L65.1738 89.5889L65.418 89.7109C66.1178 89.9551 66.7689 90.1341 67.3711 90.248C67.9896 90.3457 68.6081 90.3945 69.2266 90.3945C69.8288 90.3945 70.431 90.3538 71.0332 90.2725C71.6517 90.1748 72.3109 90.0365 73.0107 89.8574L73.2061 89.7598L73.4258 89.8574C74.2233 90.1341 74.9232 90.3376 75.5254 90.4678C76.1276 90.5817 76.7054 90.6387 77.2588 90.6387C77.8122 90.6387 78.3656 90.5817 78.9189 90.4678C79.4723 90.3538 80.1071 90.1829 80.8232 89.9551L81.1162 89.8574L81.3604 90.0039C81.3766 90.0202 81.4824 90.1097 81.6777 90.2725C81.873 90.4352 82.0846 90.6875 82.3125 91.0293C82.5404 91.3711 82.7438 91.8105 82.9229 92.3477C83.1182 92.8848 83.2321 93.5195 83.2646 94.252ZM114.417 106.996L114.319 107.24C114.319 107.257 114.238 107.419 114.075 107.729C113.929 108.038 113.644 108.38 113.221 108.754C112.814 109.112 112.244 109.446 111.512 109.755C110.796 110.048 109.876 110.194 108.753 110.194C108.021 110.194 107.402 110.113 106.897 109.95C106.393 109.771 105.962 109.551 105.604 109.291C104.855 109.405 104.114 109.568 103.382 109.779C102.666 109.975 101.958 110.235 101.258 110.561L101.111 110.658L100.965 110.609C100.558 110.609 100.167 110.593 99.793 110.561C99.4349 110.528 99.0605 110.512 98.6699 110.512C97.3516 110.512 95.9925 110.65 94.5928 110.927C93.2093 111.203 91.9642 111.627 90.8574 112.196L90.6133 112.294L90.418 112.245C90.4668 112.261 90.3447 112.213 90.0518 112.099C89.7588 111.985 89.417 111.773 89.0264 111.464C88.6357 111.171 88.2533 110.764 87.8789 110.243C87.5208 109.706 87.3011 109.022 87.2197 108.192C86.7803 107.948 86.4141 107.688 86.1211 107.411C85.8444 107.118 85.6165 106.85 85.4375 106.605C85.2747 106.361 85.1608 106.158 85.0957 105.995C85.0306 105.816 84.998 105.718 84.998 105.702L84.9492 105.458L85.0469 105.238C85.3561 104.685 85.6247 104.164 85.8525 103.676C86.0804 103.188 86.2676 102.715 86.4141 102.26C86.5605 101.788 86.6663 101.316 86.7314 100.844C86.8128 100.355 86.8535 99.8265 86.8535 99.2568C86.8535 98.5895 86.8047 97.8408 86.707 97.0107L86.7559 96.6934C87.179 95.668 87.4883 94.7158 87.6836 93.8369C87.8952 92.958 88.001 92.0791 88.001 91.2002C88.001 90.6956 87.9684 90.1829 87.9033 89.6621C87.8382 89.125 87.7568 88.5716 87.6592 88.002L87.6104 87.7578L87.708 87.6113C88.0824 86.8789 88.3916 86.2116 88.6357 85.6094C88.8799 84.9909 89.0671 84.3724 89.1973 83.7539C88.9531 83.4284 88.7415 82.9971 88.5625 82.46C88.3997 81.9066 88.3184 81.2393 88.3184 80.458C88.3184 79.4163 88.4486 78.57 88.709 77.9189C88.9857 77.2516 89.2868 76.7308 89.6123 76.3564C89.9541 75.9821 90.2633 75.7298 90.54 75.5996C90.8167 75.4694 90.9714 75.4043 91.0039 75.4043L91.248 75.3066L91.4678 75.4043C92.3141 75.8275 93.1686 76.1367 94.0312 76.332C94.8939 76.5111 95.8053 76.6006 96.7656 76.6006C97.1562 76.6006 97.612 76.6006 98.1328 76.6006C98.6536 76.5843 99.1257 76.5029 99.5488 76.3564L99.7686 76.3076L99.9639 76.4053C100.843 76.8122 101.657 77.1214 102.405 77.333C103.154 77.5446 103.903 77.6667 104.651 77.6992C105.058 77.5202 105.514 77.3574 106.019 77.2109C106.523 77.0645 107.101 76.9912 107.752 76.9912C108.403 76.9912 108.981 77.0726 109.485 77.2354C109.99 77.3818 110.413 77.5527 110.755 77.748C111.113 77.9434 111.382 78.1224 111.561 78.2852C111.756 78.4479 111.87 78.5374 111.902 78.5537L112.146 78.7979L112.049 79.0908C111.87 79.807 111.731 80.4906 111.634 81.1416C111.552 81.7764 111.512 82.3949 111.512 82.9971C111.512 83.8109 111.593 84.6003 111.756 85.3652C111.935 86.1139 112.187 86.8952 112.513 87.709L112.61 87.8555L112.562 88.0508C112.464 88.6693 112.382 89.2633 112.317 89.833C112.252 90.3864 112.22 90.9398 112.22 91.4932C112.22 92.5511 112.326 93.5684 112.537 94.5449C112.765 95.5052 113.107 96.4736 113.562 97.4502L113.66 97.5967L113.562 97.8408C113.383 98.557 113.245 99.2243 113.147 99.8428C113.05 100.445 113.001 101.031 113.001 101.601C113.001 102.463 113.107 103.31 113.318 104.14C113.53 104.953 113.864 105.84 114.319 106.801L114.417 106.996ZM97.0586 88.71L97.0098 88.8564C96.5378 89.9632 96.196 90.9723 95.9844 91.8838C95.7728 92.779 95.667 93.666 95.667 94.5449C95.667 95.0658 95.6995 95.5866 95.7646 96.1074C95.8298 96.6283 95.9274 97.1735 96.0576 97.7432L96.1064 97.9385L96.0088 98.1582C95.5368 99.1022 95.1706 99.9404 94.9102 100.673C94.666 101.389 94.5195 102.13 94.4707 102.895C94.8613 102.846 95.2845 102.789 95.7402 102.724C96.196 102.659 96.6354 102.585 97.0586 102.504C97.498 102.406 97.9049 102.292 98.2793 102.162C98.6699 102.032 98.9954 101.877 99.2559 101.698L99.4512 101.601L99.6465 101.649C100.216 101.78 100.77 101.869 101.307 101.918C101.86 101.967 102.397 101.991 102.918 101.991C103.634 101.991 104.35 101.942 105.066 101.845C104.985 101.373 104.879 100.884 104.749 100.38C104.635 99.859 104.489 99.3138 104.31 98.7441L104.261 98.4512C104.456 97.3607 104.554 96.2946 104.554 95.2529C104.554 94.195 104.44 93.1859 104.212 92.2256C104 91.249 103.683 90.2562 103.26 89.2471L103.162 89.0518L103.211 88.8076C103.39 88.1729 103.536 87.5544 103.65 86.9521C103.764 86.3499 103.838 85.7477 103.87 85.1455C103.642 85.113 103.414 85.0885 103.187 85.0723C102.975 85.056 102.763 85.0479 102.552 85.0479C102.096 85.0479 101.64 85.0804 101.185 85.1455C100.729 85.2106 100.241 85.3083 99.7197 85.4385L99.3535 85.3896C98.8815 85.3083 98.4502 85.2188 98.0596 85.1211C97.6689 85.0072 97.2702 84.9014 96.8633 84.8037C96.8307 85.0479 96.8145 85.2839 96.8145 85.5117C96.8145 85.7396 96.8145 85.9674 96.8145 86.1953C96.8145 86.5534 96.8307 86.9196 96.8633 87.2939C96.9121 87.6683 96.9772 88.0671 97.0586 88.4902V88.71ZM143.714 78.2119L143.616 78.5049C143.323 79.4163 143.087 80.3034 142.908 81.166C142.745 82.0286 142.664 82.8913 142.664 83.7539C142.664 84.4049 142.713 85.056 142.811 85.707C142.924 86.3418 143.079 86.9928 143.274 87.6602V88.002C142.77 89.7272 142.518 91.4118 142.518 93.0557C142.518 93.902 142.583 94.724 142.713 95.5215C142.843 96.319 143.047 97.1084 143.323 97.8896V98.3047C142.998 99.151 142.754 100.006 142.591 100.868C142.444 101.731 142.371 102.593 142.371 103.456C142.371 105.1 142.656 106.728 143.226 108.339L143.323 108.607L143.226 108.803C143.209 108.835 143.12 108.982 142.957 109.242C142.794 109.486 142.526 109.755 142.151 110.048C141.777 110.341 141.272 110.609 140.638 110.854C140.003 111.081 139.214 111.195 138.27 111.195C137.488 111.195 136.821 111.122 136.268 110.976C135.714 110.813 135.25 110.601 134.876 110.341H134.632C134.192 110.341 133.802 110.3 133.46 110.219C133.118 110.121 132.833 110.023 132.605 109.926C132.378 109.812 132.199 109.706 132.068 109.608C131.954 109.494 131.889 109.421 131.873 109.389L131.678 109.242V108.998C131.596 107.338 131.255 105.751 130.652 104.237C130.05 102.724 129.171 101.226 128.016 99.7451L127.918 99.501C127.723 98.3942 127.446 97.3525 127.088 96.376C126.746 95.3994 126.323 94.4554 125.818 93.5439C125.851 94.3089 125.924 95.0495 126.038 95.7656C126.168 96.4818 126.364 97.1898 126.624 97.8896L126.722 98.1094L126.624 98.3047C126.315 99.1348 126.087 99.973 125.94 100.819C125.794 101.649 125.721 102.496 125.721 103.358C125.721 104.205 125.786 105.043 125.916 105.873C126.046 106.687 126.266 107.509 126.575 108.339L126.673 108.607L126.575 108.803C126.559 108.835 126.469 108.982 126.307 109.242C126.144 109.486 125.875 109.755 125.501 110.048C125.127 110.341 124.614 110.609 123.963 110.854C123.328 111.081 122.531 111.195 121.57 111.195C120.61 111.195 119.812 111.073 119.178 110.829C118.559 110.569 118.063 110.284 117.688 109.975C117.33 109.649 117.078 109.356 116.932 109.096C116.785 108.835 116.712 108.689 116.712 108.656L116.614 108.412L116.712 108.192C117.086 107.297 117.363 106.378 117.542 105.434C117.721 104.49 117.811 103.513 117.811 102.504C117.811 101.82 117.77 101.137 117.688 100.453C117.623 99.7533 117.501 99.0371 117.322 98.3047V98.0117C117.518 97.1979 117.672 96.4004 117.786 95.6191C117.916 94.8216 117.981 94.0485 117.981 93.2998C117.981 92.4209 117.908 91.5664 117.762 90.7363C117.615 89.9062 117.42 89.0762 117.176 88.2461L117.127 88.0508L117.225 87.8555C117.924 86.0651 118.274 84.2829 118.274 82.5088C118.274 81.7926 118.217 81.0928 118.104 80.4092C118.006 79.7093 117.843 78.9932 117.615 78.2607L117.518 77.9434L117.713 77.6992C117.729 77.6829 117.827 77.5853 118.006 77.4062C118.185 77.2109 118.453 77.0075 118.812 76.7959C119.186 76.568 119.65 76.3727 120.203 76.21C120.757 76.0309 121.416 75.9414 122.181 75.9414C122.913 75.9414 123.54 76.0309 124.061 76.21C124.598 76.3727 125.053 76.568 125.428 76.7959H125.818C126.502 76.7959 127.047 76.8773 127.454 77.04C127.861 77.1865 128.081 77.276 128.113 77.3086L128.431 77.4551L128.479 77.748C128.821 81.1009 129.985 83.9167 131.971 86.1953L132.117 86.3418V86.4883C132.54 89.1576 133.379 91.4606 134.632 93.3975V93.3486C134.632 92.4697 134.567 91.6152 134.437 90.7852C134.306 89.9551 134.119 89.1087 133.875 88.2461V87.8555C134.575 86.0651 134.925 84.2503 134.925 82.4111C134.925 81.0114 134.721 79.6279 134.314 78.2607L134.217 77.9434L134.412 77.6992C134.428 77.6829 134.526 77.5853 134.705 77.4062C134.884 77.2109 135.153 77.0075 135.511 76.7959C135.885 76.568 136.349 76.3727 136.902 76.21C137.456 76.0309 138.115 75.9414 138.88 75.9414C139.645 75.9414 140.312 76.0472 140.882 76.2588C141.451 76.4541 141.932 76.6738 142.322 76.918C142.713 77.1621 143.006 77.39 143.201 77.6016C143.396 77.8132 143.502 77.9271 143.519 77.9434L143.714 78.2119Z" fill="black"/>
</svg>
