<svg width="36" height="36" viewBox="0 0 36 36" fill="none" xmlns="http://www.w3.org/2000/svg">
<path d="M25.5419 20.5714V24.516C25.5419 25.5189 25.9405 26.4857 26.6528 27.1954C27.3625 27.9077 28.5659 28.3063 29.5714 28.3063H1.28564C2.29107 28.3063 3.4945 27.9077 4.20422 27.1954C4.55668 26.8439 4.83625 26.4263 5.02688 25.9665C5.21751 25.5067 5.31545 25.0138 5.31507 24.516V15.2563C5.31507 12.574 6.38059 10.0016 8.27723 8.105C10.1739 6.20837 12.7463 5.14285 15.4285 5.14285M12.8571 34.7143H17.9999M27.6428 14.1428C29.3478 14.1428 30.9829 13.4656 32.1885 12.26C33.3941 11.0544 34.0714 9.41924 34.0714 7.71428C34.0714 6.00931 33.3941 4.37418 32.1885 3.16859C30.9829 1.963 29.3478 1.28571 27.6428 1.28571C25.9378 1.28571 24.3027 1.963 23.0971 3.16859C21.8915 4.37418 21.2142 6.00931 21.2142 7.71428C21.2142 9.41924 21.8915 11.0544 23.0971 12.26C24.3027 13.4656 25.9378 14.1428 27.6428 14.1428Z" stroke="black" stroke-width="1.5" stroke-linecap="round" stroke-linejoin="round"/>
</svg>
